<?xml version="1.0" encoding="UTF-8"?>
<svg width="16" height="16" viewBox="0 0 16 16" fill="none" xmlns="http://www.w3.org/2000/svg">
    <path d="M8 2C4.68629 2 2 4.68629 2 8C2 11.3137 4.68629 14 8 14C11.3137 14 14 11.3137 14 8C14 4.68629 11.3137 2 8 2ZM5.70711 5.70711C5.31658 5.31658 5.31658 4.68342 5.70711 4.29289C6.09763 3.90237 6.7308 3.90237 7.12132 4.29289L8 5.17157L8.87868 4.29289C9.2692 3.90237 9.90237 3.90237 10.2929 4.29289C10.6834 4.68342 10.6834 5.31658 10.2929 5.70711L9.41421 6.58579L10.2929 7.46447C10.6834 7.85499 10.6834 8.48816 10.2929 8.87868C9.90237 9.2692 9.2692 9.2692 8.87868 8.87868L8 8L7.12132 8.87868C6.7308 9.2692 6.09763 9.2692 5.70711 8.87868C5.31658 8.48816 5.31658 7.85499 5.70711 7.46447L6.58579 6.58579L5.70711 5.70711Z" fill="#C586C0"/>
</svg>
