<?xml version="1.0" encoding="UTF-8"?>
<svg width="16" height="16" viewBox="0 0 16 16" fill="none" xmlns="http://www.w3.org/2000/svg">
    <path fill-rule="evenodd" clip-rule="evenodd" d="M9.1 2.1L8.9 1L7.1 1L6.9 2.1C6.4 2.2 5.9 2.4 5.5 2.7L4.5 2.1L3.2 3.4L3.8 4.4C3.5 4.8 3.3 5.3 3.2 5.8L2.1 6L2.1 7.8L3.2 8C3.3 8.5 3.5 9 3.8 9.4L3.2 10.4L4.5 11.7L5.5 11.1C5.9 11.4 6.4 11.6 6.9 11.7L7.1 12.8L8.9 12.8L9.1 11.7C9.6 11.6 10.1 11.4 10.5 11.1L11.5 11.7L12.8 10.4L12.2 9.4C12.5 9 12.7 8.5 12.8 8L13.9 7.8L13.9 6L12.8 5.8C12.7 5.3 12.5 4.8 12.2 4.4L12.8 3.4L11.5 2.1L10.5 2.7C10.1 2.4 9.6 2.2 9.1 2.1ZM8 9.5C6.6 9.5 5.5 8.4 5.5 7C5.5 5.6 6.6 4.5 8 4.5C9.4 4.5 10.5 5.6 10.5 7C10.5 8.4 9.4 9.5 8 9.5Z" fill="#4EC9B0"/>
</svg>
