<?xml version="1.0" encoding="UTF-8" standalone="no"?>
<svg xmlns="http://www.w3.org/2000/svg" width="16" height="16" viewBox="0 0 256 256">
    <path fill="#F37726" d="M128 0C57.308 0 0 57.308 0 128s57.308 128 128 128 128-57.308 128-128S198.692 0 128 0z"/>
    <g fill="#FFFFFF">
        <path d="M128 40c-48.601 0-88 39.399-88 88s39.399 88 88 88 88-39.399 88-88-39.399-88-88-88zm0 160c-39.764 0-72-32.236-72-72s32.236-72 72-72 72 32.236 72 72-32.236 72-72 72z"/>
        <circle cx="128" cy="128" r="16"/>
        <circle cx="128" cy="72" r="16"/>
        <circle cx="128" cy="184" r="16"/>
    </g>
</svg>
